# xmcd
# 
# Track frame offsets:
#     150
#     61722
#     100164
#     107047
# 
# Disc length: 1501
# 
# Revision: 0
# Processed by: cddbd v1.5.2PL0 Copyright (c) Steve Scherf et al.
# Submitted via: fre:ac v1.0.17
# 
DISCID=2805db04
DTITLE=3 chardons - Anga Fils du Feu
DYEAR=2017
DGENRE=
TTITLE0=Le texte et la musique
TTITLE1=Le texte seul
TTITLE2=La chanson des Brachibrouk
TTITLE3=La chanson d'Anga
EXTD=
EXTT0=
EXTT1=
EXTT2=
EXTT3=
PLAYORDER=
